# xmcd
#
# Track frame offsets: 
#        150
#        18707
#        40480
#        63005
#        81517
#        95880
#        113672
#        132842
#        150622
#        166442
#        183992
#        197637
#        217080
#        230975
#        246515
#        269567
#
# Disc length: 3936 seconds
#
# Revision: 2
# Processed by: cddbd v1.5.2PL0 Copyright (c) Steve Scherf et al.
# Submitted via: ExactAudioCopy v1.0b1
#
DISCID=f30f5e10
DTITLE=Various Artist - Soul Moods Vol. 3
DYEAR=1994
DGENRE=Soul
TTITLE0=The Cover Girls - Wishing On A Star
TTITLE1=Billy Paul - Me And Mrs Jones
TTITLE2=Earth, Wind and Fire - Reasons
TTITLE3=Luther Vandross - Creepin'
TTITLE4=The O'Jays - Now That We've Found Love
TTITLE5=Isley Brothers - Harvest For The World
TTITLE6=Mtume - You, Me And He
TTITLE7=Nicole McCloud and Timmy Thomas - New York Eyes
TTITLE8=The Jacksons - Show You The Way To Go
TTITLE9=Surface - Happy
TTITLE10=Three Degrees - When Will I See You Again?
TTITLE11=Bill Withers - Lean On Me
TTITLE12=Manhattans - Hurt
TTITLE13=Harold Melvin and The Blue Notes - If You Don't Know Me By Now
TTITLE14=Marvin Gaye - Turn On Some Music
TTITLE15=MFSB feat. The Three Degrees - TSOP (The Sound Of Philadelphi
TTITLE15=a)
EXTD=
EXTT0=
EXTT1=
EXTT2=
EXTT3=
EXTT4=
EXTT5=
EXTT6=
EXTT7=
EXTT8=
EXTT9=
EXTT10=
EXTT11=
EXTT12=
EXTT13=
EXTT14=
EXTT15=
PLAYORDER=
